<svg height="1182" width="720" xmlns="http://www.w3.org/2000/svg">
<rect height="1182" fill="#555" width="720"></rect>
<text fill="#7f7" font-family="Courier New" font-size="12" xml:space="preserve">
<tspan x="10" y="26">24 megabytes installed</tspan>
<tspan x="10" y="42"></tspan>
<tspan x="10" y="58">node_modules</tspan>
<tspan x="10" y="74">└─┬ webpack-closure-compiler@2.1.4 </tspan>
<tspan x="10" y="90">  ├── async@1.5.2 </tspan>
<tspan x="10" y="106">  ├─┬ google-closure-compiler@20170124.0.0 </tspan>
<tspan x="10" y="122">  │ ├─┬ chalk@1.1.3 </tspan>
<tspan x="10" y="138">  │ │ ├── ansi-styles@2.2.1 </tspan>
<tspan x="10" y="154">  │ │ ├── escape-string-regexp@1.0.5 </tspan>
<tspan x="10" y="170">  │ │ ├─┬ has-ansi@2.0.0 </tspan>
<tspan x="10" y="186">  │ │ │ └── ansi-regex@2.1.1 </tspan>
<tspan x="10" y="202">  │ │ ├── strip-ansi@3.0.1 </tspan>
<tspan x="10" y="218">  │ │ └── supports-color@2.0.0 </tspan>
<tspan x="10" y="234">  │ ├─┬ vinyl@1.2.0 </tspan>
<tspan x="10" y="250">  │ │ ├── clone@1.0.2 </tspan>
<tspan x="10" y="266">  │ │ ├── clone-stats@0.0.1 </tspan>
<tspan x="10" y="282">  │ │ └── replace-ext@0.0.1 </tspan>
<tspan x="10" y="298">  │ └─┬ vinyl-sourcemaps-apply@0.2.1 </tspan>
<tspan x="10" y="314">  │   └── source-map@0.5.6 </tspan>
<tspan x="10" y="330">  ├─┬ google-closure-compiler-js@20170124.0.0 </tspan>
<tspan x="10" y="346">  │ ├─┬ gulp-util@3.0.8 </tspan>
<tspan x="10" y="362">  │ │ ├── array-differ@1.0.0 </tspan>
<tspan x="10" y="378">  │ │ ├── array-uniq@1.0.3 </tspan>
<tspan x="10" y="394">  │ │ ├── beeper@1.1.1 </tspan>
<tspan x="10" y="410">  │ │ ├── dateformat@2.0.0 </tspan>
<tspan x="10" y="426">  │ │ ├─┬ fancy-log@1.3.0 </tspan>
<tspan x="10" y="442">  │ │ │ └── time-stamp@1.0.1 </tspan>
<tspan x="10" y="458">  │ │ ├─┬ gulplog@1.0.0 </tspan>
<tspan x="10" y="474">  │ │ │ └── glogg@1.0.0 </tspan>
<tspan x="10" y="490">  │ │ ├─┬ has-gulplog@0.1.0 </tspan>
<tspan x="10" y="506">  │ │ │ └── sparkles@1.0.0 </tspan>
<tspan x="10" y="522">  │ │ ├── lodash._reescape@3.0.0 </tspan>
<tspan x="10" y="538">  │ │ ├── lodash._reevaluate@3.0.0 </tspan>
<tspan x="10" y="554">  │ │ ├── lodash._reinterpolate@3.0.0 </tspan>
<tspan x="10" y="570">  │ │ ├─┬ lodash.template@3.6.2 </tspan>
<tspan x="10" y="586">  │ │ │ ├── lodash._basecopy@3.0.1 </tspan>
<tspan x="10" y="602">  │ │ │ ├── lodash._basetostring@3.0.1 </tspan>
<tspan x="10" y="618">  │ │ │ ├── lodash._basevalues@3.0.0 </tspan>
<tspan x="10" y="634">  │ │ │ ├── lodash._isiterateecall@3.0.9 </tspan>
<tspan x="10" y="650">  │ │ │ ├─┬ lodash.escape@3.2.0 </tspan>
<tspan x="10" y="666">  │ │ │ │ └── lodash._root@3.0.1 </tspan>
<tspan x="10" y="682">  │ │ │ ├─┬ lodash.keys@3.1.2 </tspan>
<tspan x="10" y="698">  │ │ │ │ ├── lodash._getnative@3.9.1 </tspan>
<tspan x="10" y="714">  │ │ │ │ ├── lodash.isarguments@3.1.0 </tspan>
<tspan x="10" y="730">  │ │ │ │ └── lodash.isarray@3.0.4 </tspan>
<tspan x="10" y="746">  │ │ │ ├── lodash.restparam@3.6.1 </tspan>
<tspan x="10" y="762">  │ │ │ └── lodash.templatesettings@3.1.1 </tspan>
<tspan x="10" y="778">  │ │ ├─┬ multipipe@0.1.2 </tspan>
<tspan x="10" y="794">  │ │ │ └─┬ duplexer2@0.0.2 </tspan>
<tspan x="10" y="810">  │ │ │   └─┬ readable-stream@1.1.14 </tspan>
<tspan x="10" y="826">  │ │ │     ├── isarray@0.0.1 </tspan>
<tspan x="10" y="842">  │ │ │     └── string_decoder@0.10.31 </tspan>
<tspan x="10" y="858">  │ │ ├── object-assign@3.0.0 </tspan>
<tspan x="10" y="874">  │ │ ├─┬ through2@2.0.3 </tspan>
<tspan x="10" y="890">  │ │ │ ├─┬ readable-stream@2.2.9 </tspan>
<tspan x="10" y="906">  │ │ │ │ ├── buffer-shims@1.0.0 </tspan>
<tspan x="10" y="922">  │ │ │ │ ├── core-util-is@1.0.2 </tspan>
<tspan x="10" y="938">  │ │ │ │ ├── inherits@2.0.3 </tspan>
<tspan x="10" y="954">  │ │ │ │ ├── isarray@1.0.0 </tspan>
<tspan x="10" y="970">  │ │ │ │ ├── process-nextick-args@1.0.7 </tspan>
<tspan x="10" y="986">  │ │ │ │ ├── string_decoder@1.0.0 </tspan>
<tspan x="10" y="1002">  │ │ │ │ └── util-deprecate@1.0.2 </tspan>
<tspan x="10" y="1018">  │ │ │ └── xtend@4.0.1 </tspan>
<tspan x="10" y="1034">  │ │ └── vinyl@0.5.3 </tspan>
<tspan x="10" y="1050">  │ └── minimist@1.2.0 </tspan>
<tspan x="10" y="1066">  ├─┬ temp@0.8.3 </tspan>
<tspan x="10" y="1082">  │ ├── os-tmpdir@1.0.2 </tspan>
<tspan x="10" y="1098">  │ └── rimraf@2.2.8 </tspan>
<tspan x="10" y="1114">  └─┬ webpack-core@0.6.9 </tspan>
<tspan x="10" y="1130">    ├── source-list-map@0.1.8 </tspan>
<tspan x="10" y="1146">    └─┬ source-map@0.4.4 </tspan>
<tspan x="10" y="1162">      └── amdefine@1.0.1</tspan>
</text>
</svg>
